<?xml version="1.0" encoding="utf-8" standalone="no"?>
<!DOCTYPE svg PUBLIC "-//W3C//DTD SVG 1.1//EN"
  "http://www.w3.org/Graphics/SVG/1.1/DTD/svg11.dtd">
<!-- Created with matplotlib (http://matplotlib.org/) -->
<svg height="323pt" version="1.1" viewBox="0 0 493 323" width="493pt" xmlns="http://www.w3.org/2000/svg" xmlns:xlink="http://www.w3.org/1999/xlink">
 <defs>
  <style type="text/css">
*{stroke-linecap:butt;stroke-linejoin:round;stroke-miterlimit:100000;}
  </style>
 </defs>
 <g id="figure_1">
  <g id="patch_1">
   <path d="M 0 323.820625 
L 493.939375 323.820625 
L 493.939375 0 
L 0 0 
z
" style="fill:#ffffff;"/>
  </g>
  <g id="axes_1">
   <g id="line2d_1">
    <path clip-path="url(#pa4c6571ec5)" d="M 407.539375 157.006875 
L 407.249456 147.873831 
L 406.380868 138.777562 
L 404.937107 129.754696 
L 402.923988 120.841565 
L 400.349616 112.074059 
L 397.224357 103.487481 
L 393.560797 95.116408 
L 389.373685 86.994545 
L 384.679884 79.154597 
L 379.498292 71.628133 
L 373.849775 64.445459 
L 367.757076 57.635497 
L 361.24473 51.225669 
L 354.338959 45.241784 
L 347.06757 39.707938 
L 339.459842 34.646413 
L 331.54641 30.077591 
L 323.359137 26.019868 
L 314.930991 22.489583 
L 306.295909 19.500952 
L 297.488662 17.066009 
L 288.544713 15.194559 
L 279.500076 13.894136 
L 270.391171 13.169978 
L 261.254676 13.025001 
L 252.127381 13.459787 
L 243.046038 14.472587 
L 234.047215 16.059323 
L 225.167146 18.213604 
L 216.441588 20.926757 
L 207.905677 24.187857 
L 199.593783 27.983772 
L 191.539375 32.299217 
L 183.774886 37.116816 
L 176.33158 42.41717 
L 169.239429 48.178936 
L 162.526991 54.378914 
L 156.221294 60.992139 
L 150.347729 67.991981 
L 144.929947 75.350255 
L 139.989763 83.037331 
L 135.54707 91.022256 
L 131.619757 99.272878 
L 128.223638 107.755974 
L 125.372387 116.437387 
L 123.077486 125.282158 
L 121.348175 134.254674 
L 120.191418 143.318805 
L 119.611873 152.438053 
L 119.611873 161.575697 
L 120.191418 170.694945 
L 121.348175 179.759076 
L 123.077486 188.731592 
L 125.372387 197.576363 
L 128.223638 206.257776 
L 131.619757 214.740872 
L 135.54707 222.991494 
L 139.989763 230.976419 
L 144.929947 238.663495 
L 150.347729 246.021769 
L 156.221294 253.021611 
L 162.526991 259.634836 
L 169.239429 265.834814 
L 176.33158 271.59658 
L 183.774886 276.896934 
L 191.539375 281.714533 
L 199.593783 286.029978 
L 207.905677 289.825893 
L 216.441588 293.086993 
L 225.167146 295.800146 
L 234.047215 297.954427 
L 243.046038 299.541163 
L 252.127381 300.553963 
L 261.254676 300.988749 
L 270.391171 300.843772 
L 279.500076 300.119614 
L 288.544713 298.819191 
L 297.488662 296.947741 
L 306.295909 294.512798 
L 314.930991 291.524167 
L 323.359137 287.993882 
L 331.54641 283.936159 
L 339.459842 279.367337 
L 347.06757 274.305812 
L 354.338959 268.771966 
L 361.24473 262.788081 
L 367.757076 256.378253 
L 373.849775 249.568291 
L 379.498292 242.385617 
L 384.679884 234.859153 
L 389.373685 227.019205 
L 393.560797 218.897342 
L 397.224357 210.526269 
L 400.349616 201.939691 
L 402.923988 193.172185 
L 404.937107 184.259054 
L 406.380868 175.236188 
L 407.249456 166.139919 
L 407.539375 157.006875 
" style="fill:none;stroke:#000000;stroke-linecap:square;"/>
   </g>
   <g id="line2d_2">
    <path clip-path="url(#pa4c6571ec5)" d="M 220.339375 113.806875 
L 220.310383 112.893571 
L 220.223524 111.983944 
L 220.079148 111.081657 
L 219.877836 110.190344 
L 219.620399 109.313593 
L 219.307873 108.454936 
L 218.941517 107.617828 
L 218.522806 106.805642 
L 218.053426 106.021647 
L 217.535267 105.269001 
L 216.970415 104.550733 
L 216.361145 103.869737 
L 215.709911 103.228754 
L 215.019333 102.630366 
L 214.292194 102.076981 
L 213.531422 101.570829 
L 212.740078 101.113947 
L 211.921351 100.708174 
L 211.078537 100.355146 
L 210.215028 100.056283 
L 209.334304 99.812788 
L 208.439909 99.625643 
L 207.535445 99.495601 
L 206.624555 99.423185 
L 205.710905 99.408688 
L 204.798176 99.452166 
L 203.890041 99.553446 
L 202.990159 99.71212 
L 202.102152 99.927548 
L 201.229596 100.198863 
L 200.376005 100.524973 
L 199.544816 100.904565 
L 198.739375 101.336109 
L 197.962926 101.817869 
L 197.218596 102.347904 
L 196.50938 102.924081 
L 195.838137 103.544079 
L 195.207567 104.205401 
L 194.62021 104.905386 
L 194.078432 105.641213 
L 193.584414 106.409921 
L 193.140145 107.208413 
L 192.747413 108.033475 
L 192.407801 108.881785 
L 192.122676 109.749926 
L 191.893186 110.634403 
L 191.720255 111.531655 
L 191.604579 112.438068 
L 191.546625 113.349993 
L 191.546625 114.263757 
L 191.604579 115.175682 
L 191.720255 116.082095 
L 191.893186 116.979347 
L 192.122676 117.863824 
L 192.407801 118.731965 
L 192.747413 119.580275 
L 193.140145 120.405337 
L 193.584414 121.203829 
L 194.078432 121.972537 
L 194.62021 122.708364 
L 195.207567 123.408349 
L 195.838137 124.069671 
L 196.50938 124.689669 
L 197.218596 125.265846 
L 197.962926 125.795881 
L 198.739375 126.277641 
L 199.544816 126.709185 
L 200.376005 127.088777 
L 201.229596 127.414887 
L 202.102152 127.686202 
L 202.990159 127.90163 
L 203.890041 128.060304 
L 204.798176 128.161584 
L 205.710905 128.205062 
L 206.624555 128.190565 
L 207.535445 128.118149 
L 208.439909 127.988107 
L 209.334304 127.800962 
L 210.215028 127.557467 
L 211.078537 127.258604 
L 211.921351 126.905576 
L 212.740078 126.499803 
L 213.531422 126.042921 
L 214.292194 125.536769 
L 215.019333 124.983384 
L 215.709911 124.384996 
L 216.361145 123.744013 
L 216.970415 123.063017 
L 217.535267 122.344749 
L 218.053426 121.592103 
L 218.522806 120.808108 
L 218.941517 119.995922 
L 219.307873 119.158814 
L 219.620399 118.300157 
L 219.877836 117.423406 
L 220.079148 116.532093 
L 220.223524 115.629806 
L 220.310383 114.720179 
L 220.339375 113.806875 
" style="fill:none;stroke:#000000;stroke-linecap:square;"/>
   </g>
   <g id="line2d_3">
    <path clip-path="url(#pa4c6571ec5)" d="M 335.539375 113.806875 
L 335.510383 112.893571 
L 335.423524 111.983944 
L 335.279148 111.081657 
L 335.077836 110.190344 
L 334.820399 109.313593 
L 334.507873 108.454936 
L 334.141517 107.617828 
L 333.722806 106.805642 
L 333.253426 106.021647 
L 332.735267 105.269001 
L 332.170415 104.550733 
L 331.561145 103.869737 
L 330.909911 103.228754 
L 330.219333 102.630366 
L 329.492194 102.076981 
L 328.731422 101.570829 
L 327.940078 101.113947 
L 327.121351 100.708174 
L 326.278537 100.355146 
L 325.415028 100.056283 
L 324.534304 99.812788 
L 323.639909 99.625643 
L 322.735445 99.495601 
L 321.824555 99.423185 
L 320.910905 99.408688 
L 319.998176 99.452166 
L 319.090041 99.553446 
L 318.190159 99.71212 
L 317.302152 99.927548 
L 316.429596 100.198863 
L 315.576005 100.524973 
L 314.744816 100.904565 
L 313.939375 101.336109 
L 313.162926 101.817869 
L 312.418596 102.347904 
L 311.70938 102.924081 
L 311.038137 103.544079 
L 310.407567 104.205401 
L 309.82021 104.905386 
L 309.278432 105.641213 
L 308.784414 106.409921 
L 308.340145 107.208413 
L 307.947413 108.033475 
L 307.607801 108.881785 
L 307.322676 109.749926 
L 307.093186 110.634403 
L 306.920255 111.531655 
L 306.804579 112.438068 
L 306.746625 113.349993 
L 306.746625 114.263757 
L 306.804579 115.175682 
L 306.920255 116.082095 
L 307.093186 116.979347 
L 307.322676 117.863824 
L 307.607801 118.731965 
L 307.947413 119.580275 
L 308.340145 120.405337 
L 308.784414 121.203829 
L 309.278432 121.972537 
L 309.82021 122.708364 
L 310.407567 123.408349 
L 311.038137 124.069671 
L 311.70938 124.689669 
L 312.418596 125.265846 
L 313.162926 125.795881 
L 313.939375 126.277641 
L 314.744816 126.709185 
L 315.576005 127.088777 
L 316.429596 127.414887 
L 317.302152 127.686202 
L 318.190159 127.90163 
L 319.090041 128.060304 
L 319.998176 128.161584 
L 320.910905 128.205062 
L 321.824555 128.190565 
L 322.735445 128.118149 
L 323.639909 127.988107 
L 324.534304 127.800962 
L 325.415028 127.557467 
L 326.278537 127.258604 
L 327.121351 126.905576 
L 327.940078 126.499803 
L 328.731422 126.042921 
L 329.492194 125.536769 
L 330.219333 124.983384 
L 330.909911 124.384996 
L 331.561145 123.744013 
L 332.170415 123.063017 
L 332.735267 122.344749 
L 333.253426 121.592103 
L 333.722806 120.808108 
L 334.141517 119.995922 
L 334.507873 119.158814 
L 334.820399 118.300157 
L 335.077836 117.423406 
L 335.279148 116.532093 
L 335.423524 115.629806 
L 335.510383 114.720179 
L 335.539375 113.806875 
" style="fill:none;stroke:#000000;stroke-linecap:square;"/>
   </g>
   <g id="line2d_4">
    <path clip-path="url(#pa4c6571ec5)" d="M 187.171843 233.374407 
L 188.3931 234.576439 
L 189.633274 235.758944 
L 190.892055 236.921622 
L 192.169123 238.064183 
L 193.464159 239.186338 
L 194.776836 240.287805 
L 196.106824 241.368306 
L 197.453787 242.42757 
L 198.817387 243.465329 
L 200.19728 244.481323 
L 201.59312 245.475296 
L 203.004554 246.446997 
L 204.431227 247.396182 
L 205.872781 248.322613 
L 207.328852 249.226055 
L 208.799073 250.106281 
L 210.283075 250.96307 
L 211.780484 251.796206 
L 213.290924 252.605479 
L 214.814012 253.390686 
L 216.349368 254.151629 
L 217.896603 254.888116 
L 219.455328 255.599962 
L 221.025151 256.286988 
L 222.605677 256.94902 
L 224.196508 257.585893 
L 225.797244 258.197445 
L 227.40748 258.783523 
L 229.026813 259.34398 
L 230.654834 259.878674 
L 232.291133 260.38747 
L 233.935299 260.870241 
L 235.586918 261.326864 
L 237.245574 261.757226 
L 238.910849 262.161217 
L 240.582324 262.538737 
L 242.259578 262.889689 
L 243.94219 263.213986 
L 245.629734 263.511545 
L 247.321788 263.782293 
L 249.017924 264.02616 
L 250.717716 264.243087 
L 252.420736 264.433016 
L 254.126555 264.595902 
L 255.834743 264.731703 
L 257.544871 264.840385 
L 259.256508 264.921921 
L 260.969224 264.976289 
L 262.682586 265.003476 
L 264.396164 265.003476 
L 266.109526 264.976289 
L 267.822242 264.921921 
L 269.533879 264.840385 
L 271.244007 264.731703 
L 272.952195 264.595902 
L 274.658014 264.433016 
L 276.361034 264.243087 
L 278.060826 264.02616 
L 279.756962 263.782293 
L 281.449016 263.511545 
L 283.13656 263.213986 
L 284.819172 262.889689 
L 286.496426 262.538737 
L 288.167901 262.161217 
L 289.833176 261.757226 
L 291.491832 261.326864 
L 293.143451 260.870241 
L 294.787617 260.38747 
L 296.423916 259.878674 
L 298.051937 259.34398 
L 299.67127 258.783523 
L 301.281506 258.197445 
L 302.882242 257.585893 
L 304.473073 256.94902 
L 306.053599 256.286988 
L 307.623422 255.599962 
L 309.182147 254.888116 
L 310.729382 254.151629 
L 312.264738 253.390686 
L 313.787826 252.605479 
L 315.298266 251.796206 
L 316.795675 250.96307 
L 318.279677 250.106281 
L 319.749898 249.226055 
L 321.205969 248.322613 
L 322.647523 247.396182 
L 324.074196 246.446997 
L 325.48563 245.475296 
L 326.88147 244.481323 
L 328.261363 243.465329 
L 329.624963 242.42757 
L 330.971926 241.368306 
L 332.301914 240.287805 
L 333.614591 239.186338 
L 334.909627 238.064183 
L 336.186695 236.921622 
L 337.445476 235.758944 
L 338.68565 234.576439 
L 339.906907 233.374407 
" style="fill:none;stroke:#000000;stroke-linecap:square;"/>
   </g>
  </g>
 </g>
 <defs>
  <clipPath id="pa4c6571ec5">
   <rect height="288.0" width="446.4" x="40.339375" y="13.006875"/>
  </clipPath>
 </defs>
</svg>
