<?xml version="1.0" encoding="utf-8" standalone="no"?>
<!DOCTYPE svg PUBLIC "-//W3C//DTD SVG 1.1//EN"
  "http://www.w3.org/Graphics/SVG/1.1/DTD/svg11.dtd">
<!-- Created with matplotlib (http://matplotlib.org/) -->
<svg height="320pt" version="1.1" viewBox="0 0 487 320" width="487pt" xmlns="http://www.w3.org/2000/svg" xmlns:xlink="http://www.w3.org/1999/xlink">
 <defs>
  <style type="text/css">
*{stroke-linecap:butt;stroke-linejoin:round;}
  </style>
 </defs>
 <g id="figure_1">
  <g id="patch_1">
   <path d="
M0 320.917
L487.359 320.917
L487.359 0
L0 0
z
" style="fill:#ffffff;"/>
  </g>
  <g id="axes_1">
   <g id="line2d_1">
    <path clip-path="url(#pffab482aa6)" d="
M400.959 156.039
L400.669 146.906
L399.801 137.81
L398.357 128.787
L396.344 119.874
L393.77 111.106
L390.644 102.52
L386.981 94.1486
L382.794 86.0267
L378.1 78.1868
L372.918 70.6603
L367.27 63.4776
L361.177 56.6677
L354.665 50.2579
L347.759 44.274
L340.488 38.7401
L332.88 33.6786
L324.966 29.1098
L316.779 25.0521
L308.351 21.5218
L299.716 18.5331
L290.909 16.0982
L281.965 14.2267
L272.92 12.9263
L263.811 12.2022
L254.675 12.0572
L245.547 12.492
L236.466 13.5048
L227.467 15.0915
L218.587 17.2458
L209.862 19.9589
L201.326 23.22
L193.014 27.016
L184.959 31.3314
L177.195 36.149
L169.752 41.4494
L162.659 47.2111
L155.947 53.4111
L149.641 60.0243
L143.768 67.0242
L138.35 74.3824
L133.41 82.0695
L128.967 90.0544
L125.04 98.3051
L121.644 106.788
L118.792 115.47
L116.497 124.314
L114.768 133.287
L113.611 142.351
L113.032 151.47
L113.032 160.608
L113.611 169.727
L114.768 178.791
L116.497 187.764
L118.792 196.609
L121.644 205.29
L125.04 213.773
L128.967 222.024
L133.41 230.009
L138.35 237.696
L143.768 245.054
L149.641 252.054
L155.947 258.667
L162.659 264.867
L169.752 270.629
L177.195 275.929
L184.959 280.747
L193.014 285.062
L201.326 288.858
L209.862 292.119
L218.587 294.832
L227.467 296.987
L236.466 298.573
L245.547 299.586
L254.675 300.021
L263.811 299.876
L272.92 299.152
L281.965 297.851
L290.909 295.98
L299.716 293.545
L308.351 290.556
L316.779 287.026
L324.966 282.968
L332.88 278.4
L340.488 273.338
L347.759 267.804
L354.665 261.82
L361.177 255.41
L367.27 248.6
L372.918 241.418
L378.1 233.891
L382.794 226.051
L386.981 217.93
L390.644 209.558
L393.77 200.972
L396.344 192.204
L398.357 183.291
L399.801 174.268
L400.669 165.172
L400.959 156.039" style="fill:none;stroke:#000000;stroke-linecap:square;"/>
   </g>
   <g id="line2d_2">
    <path clip-path="url(#pffab482aa6)" d="
M213.759 112.839
L213.73 111.926
L213.644 111.016
L213.499 110.114
L213.298 109.223
L213.04 108.346
L212.728 107.487
L212.362 106.65
L211.943 105.838
L211.473 105.054
L210.955 104.301
L210.39 103.583
L209.781 102.902
L209.13 102.261
L208.439 101.663
L207.712 101.109
L206.951 100.603
L206.16 100.146
L205.341 99.7404
L204.499 99.3873
L203.635 99.0885
L202.754 98.845
L201.86 98.6578
L200.955 98.5278
L200.045 98.4554
L199.131 98.4409
L198.218 98.4844
L197.31 98.5856
L196.41 98.7443
L195.522 98.9597
L194.65 99.2311
L193.796 99.5572
L192.965 99.9368
L192.159 100.368
L191.383 100.85
L190.639 101.38
L189.929 101.956
L189.258 102.576
L188.628 103.238
L188.04 103.938
L187.498 104.673
L187.004 105.442
L186.56 106.241
L186.167 107.066
L185.828 107.914
L185.543 108.782
L185.313 109.667
L185.14 110.564
L185.025 111.47
L184.967 112.382
L184.967 113.296
L185.025 114.208
L185.14 115.114
L185.313 116.012
L185.543 116.896
L185.828 117.764
L186.167 118.612
L186.56 119.438
L187.004 120.236
L187.498 121.005
L188.04 121.741
L188.628 122.441
L189.258 123.102
L189.929 123.722
L190.639 124.298
L191.383 124.828
L192.159 125.31
L192.965 125.741
L193.796 126.121
L194.65 126.447
L195.522 126.718
L196.41 126.934
L197.31 127.092
L198.218 127.194
L199.131 127.237
L200.045 127.223
L200.955 127.15
L201.86 127.02
L202.754 126.833
L203.635 126.59
L204.499 126.291
L205.341 125.938
L206.16 125.532
L206.951 125.075
L207.712 124.569
L208.439 124.016
L209.13 123.417
L209.781 122.776
L210.39 122.095
L210.955 121.377
L211.473 120.624
L211.943 119.84
L212.362 119.028
L212.728 118.191
L213.04 117.332
L213.298 116.456
L213.499 115.564
L213.644 114.662
L213.73 113.752
L213.759 112.839" style="fill:none;stroke:#000000;stroke-linecap:square;"/>
   </g>
   <g id="line2d_3">
    <path clip-path="url(#pffab482aa6)" d="
M328.959 112.839
L328.93 111.926
L328.844 111.016
L328.699 110.114
L328.498 109.223
L328.24 108.346
L327.928 107.487
L327.562 106.65
L327.143 105.838
L326.673 105.054
L326.155 104.301
L325.59 103.583
L324.981 102.902
L324.33 102.261
L323.639 101.663
L322.912 101.109
L322.151 100.603
L321.36 100.146
L320.541 99.7404
L319.699 99.3873
L318.835 99.0885
L317.954 98.845
L317.06 98.6578
L316.155 98.5278
L315.245 98.4554
L314.331 98.4409
L313.418 98.4844
L312.51 98.5856
L311.61 98.7443
L310.722 98.9597
L309.85 99.2311
L308.996 99.5572
L308.165 99.9368
L307.359 100.368
L306.583 100.85
L305.839 101.38
L305.129 101.956
L304.458 102.576
L303.828 103.238
L303.24 103.938
L302.698 104.673
L302.204 105.442
L301.76 106.241
L301.367 107.066
L301.028 107.914
L300.743 108.782
L300.513 109.667
L300.34 110.564
L300.225 111.47
L300.167 112.382
L300.167 113.296
L300.225 114.208
L300.34 115.114
L300.513 116.012
L300.743 116.896
L301.028 117.764
L301.367 118.612
L301.76 119.438
L302.204 120.236
L302.698 121.005
L303.24 121.741
L303.828 122.441
L304.458 123.102
L305.129 123.722
L305.839 124.298
L306.583 124.828
L307.359 125.31
L308.165 125.741
L308.996 126.121
L309.85 126.447
L310.722 126.718
L311.61 126.934
L312.51 127.092
L313.418 127.194
L314.331 127.237
L315.245 127.223
L316.155 127.15
L317.06 127.02
L317.954 126.833
L318.835 126.59
L319.699 126.291
L320.541 125.938
L321.36 125.532
L322.151 125.075
L322.912 124.569
L323.639 124.016
L324.33 123.417
L324.981 122.776
L325.59 122.095
L326.155 121.377
L326.673 120.624
L327.143 119.84
L327.562 119.028
L327.928 118.191
L328.24 117.332
L328.498 116.456
L328.699 115.564
L328.844 114.662
L328.93 113.752
L328.959 112.839" style="fill:none;stroke:#000000;stroke-linecap:square;"/>
   </g>
   <g id="line2d_4">
    <path clip-path="url(#pffab482aa6)" d="
M180.592 232.407
L181.813 233.609
L183.053 234.791
L184.312 235.954
L185.589 237.096
L186.884 238.219
L188.197 239.32
L189.527 240.4
L190.874 241.46
L192.237 242.498
L193.617 243.514
L195.013 244.507
L196.425 245.479
L197.851 246.428
L199.293 247.355
L200.749 248.258
L202.219 249.138
L203.703 249.995
L205.2 250.828
L206.711 251.638
L208.234 252.423
L209.769 253.184
L211.317 253.92
L212.875 254.632
L214.445 255.319
L216.026 255.981
L217.617 256.618
L219.217 257.23
L220.827 257.816
L222.447 258.376
L224.075 258.911
L225.711 259.42
L227.355 259.902
L229.007 260.359
L230.666 260.789
L232.331 261.193
L234.002 261.571
L235.68 261.922
L237.362 262.246
L239.05 262.544
L240.742 262.814
L242.438 263.058
L244.138 263.275
L245.841 263.465
L247.547 263.628
L249.255 263.764
L250.965 263.873
L252.677 263.954
L254.389 264.008
L256.103 264.036
L257.816 264.036
L259.53 264.008
L261.242 263.954
L262.954 263.873
L264.664 263.764
L266.372 263.628
L268.078 263.465
L269.781 263.275
L271.481 263.058
L273.177 262.814
L274.869 262.544
L276.557 262.246
L278.239 261.922
L279.916 261.571
L281.588 261.193
L283.253 260.789
L284.912 260.359
L286.563 259.902
L288.208 259.42
L289.844 258.911
L291.472 258.376
L293.091 257.816
L294.702 257.23
L296.302 256.618
L297.893 255.981
L299.474 255.319
L301.043 254.632
L302.602 253.92
L304.149 253.184
L305.685 252.423
L307.208 251.638
L308.718 250.828
L310.216 249.995
L311.7 249.138
L313.17 248.258
L314.626 247.355
L316.068 246.428
L317.494 245.479
L318.906 244.507
L320.301 243.514
L321.681 242.498
L323.045 241.46
L324.392 240.4
L325.722 239.32
L327.035 238.219
L328.33 237.096
L329.607 235.954
L330.865 234.791
L332.106 233.609
L333.327 232.407" style="fill:none;stroke:#000000;stroke-linecap:square;"/>
   </g>
  </g>
 </g>
 <defs>
  <clipPath id="pffab482aa6">
   <rect height="288.0" width="446.4" x="33.759375" y="12.0390625"/>
  </clipPath>
 </defs>
</svg>
